<svg xmlns="http://www.w3.org/2000/svg" viewBox="0 0 500 500"><g id="freepik--Shadow--inject-31"><ellipse id="freepik--path--inject-31" cx="250" cy="415.69" rx="193.89" ry="11.32" style="fill:#f5f5f5"></ellipse></g><g id="freepik--Podium--inject-31"><rect x="152.73" y="371.18" width="194.54" height="53.45" style="fill:#263238"></rect><rect x="152.73" y="371.18" width="194.54" height="53.46" style="fill:#fff;opacity:0.2"></rect><rect x="205.34" y="329.13" width="84.44" height="42.01" style="fill:#263238"></rect><rect x="205.34" y="329.13" width="84.44" height="42.01" style="fill:#fff;opacity:0.2"></rect><path d="M245.07,341l-.88,4.44H249l-3.89,19.45h5.53L255.38,341Z" style="fill:#407BFF"></path><g style="opacity:0.2"><path d="M245.91,341l-.89,4.44h4.78l-3.89,19.45h4.69L255.38,341Z" style="fill:#fff"></path></g></g><g id="freepik--Lines--inject-31"><path d="M225,75.15a.46.46,0,0,1-.23-.05l-7.6-4a.5.5,0,1,1,.47-.88l7.6,4a.5.5,0,0,1,.2.68A.49.49,0,0,1,225,75.15Z" style="fill:#407BFF"></path><path d="M230.08,77.87a.52.52,0,0,1-.24-.05l-2.56-1.36a.5.5,0,0,1-.21-.68.51.51,0,0,1,.68-.21l2.56,1.36a.51.51,0,0,1,.21.68A.5.5,0,0,1,230.08,77.87Z" style="fill:#407BFF"></path><path d="M225,85.18H205.36a.5.5,0,0,1-.5-.5.5.5,0,0,1,.5-.5H225a.5.5,0,0,1,.5.5A.5.5,0,0,1,225,85.18Z" style="fill:#407BFF"></path><path d="M201.19,107.83a.49.49,0,0,1-.44-.26.5.5,0,0,1,.21-.68l9.72-5.16a.5.5,0,0,1,.68.21.49.49,0,0,1-.21.67l-9.72,5.16A.53.53,0,0,1,201.19,107.83Z" style="fill:#407BFF"></path><path d="M213.57,101.38a.49.49,0,0,1-.44-.26.51.51,0,0,1,.19-.68l4.05-2.26a.49.49,0,0,1,.68.19.5.5,0,0,1-.19.68l-4.05,2.27A.5.5,0,0,1,213.57,101.38Z" style="fill:#407BFF"></path><path d="M220,97.84a.49.49,0,0,1-.44-.26.5.5,0,0,1,.21-.68l9.84-5.22a.49.49,0,0,1,.67.2.5.5,0,0,1-.2.68l-9.84,5.22A.53.53,0,0,1,220,97.84Z" style="fill:#407BFF"></path><path d="M276.28,77.87a.49.49,0,0,1-.44-.26.5.5,0,0,1,.21-.68l12.72-6.75a.49.49,0,0,1,.67.21.49.49,0,0,1-.2.67l-12.72,6.76A.52.52,0,0,1,276.28,77.87Z" style="fill:#407BFF"></path><path d="M291.59,85.18H281.41a.5.5,0,0,1-.5-.5.5.5,0,0,1,.5-.5h10.18a.5.5,0,0,1,.5.5A.5.5,0,0,1,291.59,85.18Z" style="fill:#407BFF"></path><path d="M297.46,85.18H295.2a.5.5,0,0,1-.5-.5.5.5,0,0,1,.5-.5h2.26a.51.51,0,0,1,.5.5A.5.5,0,0,1,297.46,85.18Z" style="fill:#407BFF"></path><path d="M305.16,85.18H301a.5.5,0,0,1-.5-.5.5.5,0,0,1,.5-.5h4.14a.5.5,0,0,1,.5.5A.5.5,0,0,1,305.16,85.18Z" style="fill:#407BFF"></path><path d="M305.16,107.83a.46.46,0,0,1-.23-.06L276.27,92.56a.51.51,0,0,1-.21-.68.5.5,0,0,1,.68-.2l28.66,15.21a.5.5,0,0,1-.24.94Z" style="fill:#407BFF"></path></g><g id="freepik--character-3--inject-31"><polygon points="332.3 342.79 330.26 364.02 335.57 364.83 337.88 345.21 332.3 342.79" style="fill:#dd8c6a"></polygon><path d="M335.49,364a.86.86,0,0,1,.76.89,61,61,0,0,1-.56,6.56c-.27.64-17.3-.46-17.3-.46-.6-.44-.26-.9.07-1.88,1.18-1.64,5.37-1.63,7.86-2.17,2.95-.65,2.76-2.27,3.3-3.12a.87.87,0,0,1,.82-.39Z" style="fill:#407BFF"></path><path d="M359.08,245.28s6.09,10.42,1.88,20.25l-3.54,6.58a75.36,75.36,0,0,0-4,8.72l-10.71,29.54.17,7.54a54.21,54.21,0,0,1-.8,10.71l-4.57,28.61-9.15-1.44.51-46.74L343,245.28Z" style="fill:#263238"></path><g style="opacity:0.2"><path d="M359.08,245.28s6.09,10.42,1.88,20.25l-3.54,6.58a75.36,75.36,0,0,0-4,8.72l-10.71,29.54.17,7.54a54.21,54.21,0,0,1-.8,10.71l-4.57,28.61-9.15-1.44.51-46.74L343,245.28Z"></path></g><path d="M327.93,354c.22-.07,12.54,1.63,12.54,1.63L338.72,359,326.85,358Z" style="fill:#407BFF"></path><path d="M325.53,206.3l-6.14,14.88-19.15,5.51L302.8,231s16.86-1,21.87-4.78c1.12-.85,8.75-17,8.75-17Z" style="fill:#dd8c6a"></path><path d="M300.24,226.69l-6.11.44s-4.05,3.87-3.3,4.72,3.65,3.68,3.65,3.68a28.69,28.69,0,0,1,4.7-2.12c1.25-.23,3.62-2.43,3.62-2.43Z" style="fill:#dd8c6a"></path><g id="freepik--freepik--Character--inject-282--inject-31"><path d="M343.71,273.55s-14,24.24-14.61,27.66c-.36,2,1.14,2.92,2.34,13.64.88,7.74,1.39,23.78,1.15,25.32l-8.4,1.71s-9.09-30.78-10.62-38.11c-2.93-14,16.46-58.65,16.46-58.65l24.63.16.46,8.13c.4,7-4.4,19.31-11.41,20.14Z" style="fill:#263238"></path><polygon points="325.62 340.37 327.43 350.3 333.04 348.76 331.28 338.13 325.62 340.37" style="fill:#dd8c6a"></polygon><path d="M330.85,347.37a2.76,2.76,0,0,1,3.2.84,42.54,42.54,0,0,1,3.23,4.37c.21.66-14.62,12.1-14.62,12.1-.73.06-1.54-1.26-1.17-1.68.85-2.16,3.09-4.67,4.07-7a30.91,30.91,0,0,0,1.4-5.63,2.73,2.73,0,0,1,1.68-2.09Z" style="fill:#407BFF"></path><path d="M321.52,339.47c.19-.13,13.28-2.05,13.28-2.05l-.24,3.67-13.07,2.51Z" style="fill:#407BFF"></path><path d="M333.13,178.56a18.53,18.53,0,0,1-1.48,3.64,1.46,1.46,0,0,0,1.46.47Z" style="fill:#df5753"></path><path d="M333.05,176.7c-.38,0-.68.46-.69,1s.3,1,.68,1,.69-.46.69-1S333.43,176.7,333.05,176.7Z" style="fill:#263238"></path><path d="M350.9,185.35c-.85,4.24-1.72,12,1.24,14.87,0,0-1.19,4.3-9.08,4.26-8.68,0-4.12-4.33-4.12-4.33,4.74-1.11,4.64-4.62,3.83-7.93Z" style="fill:#e58a7b"></path><path d="M353.27,175.69c-.48,7.09-.53,10.1-4.13,13.72-5.42,5.45-14,3.32-15.67-3.73-1.49-6.39-1.37-15.55,5.61-18.33,4.95-2,11.49-1,13.5,4A9.81,9.81,0,0,1,353.27,175.69Z" style="fill:#dd8c6a"></path><path d="M354.65,200.71h0a1.62,1.62,0,0,0-1.33-1.83c-3.2-.54-10.49-1.66-14.17-1.17-2.73.37-3.45,1.95-3.58,3.26A1.6,1.6,0,0,0,337,202.7h.26l15.86-.64A1.63,1.63,0,0,0,354.65,200.71Z" style="fill:#407BFF"></path><path d="M354.65,200.71h0a1.62,1.62,0,0,0-1.33-1.83c-3.2-.54-10.49-1.66-14.17-1.17-2.73.37-3.45,1.95-3.58,3.26A1.6,1.6,0,0,0,337,202.7h.26l15.86-.64A1.63,1.63,0,0,0,354.65,200.71Z" style="opacity:0.6000000000000001;isolation:isolate"></path><path d="M360.36,196.45,365.54,184l-7.48-21.22,5-.59s9.18,17.49,9.23,23.77c0,1.41-8.15,17.32-8.15,17.32Z" style="fill:#dd8c6a"></path><path d="M353.09,200.58c0-3.05,10.19-12.14,10.19-12.14h0a23.27,23.27,0,0,1,7.15,9.46l.22.55s-5,9-8.9,8.55C357.66,206.55,353.09,204.4,353.09,200.58Z" style="fill:#407BFF"></path><path d="M353.09,200.58c0-3.05,10.19-12.14,10.19-12.14h0a23.27,23.27,0,0,1,7.15,9.46l.22.55s-5,9-8.9,8.55C357.66,206.55,353.09,204.4,353.09,200.58Z" style="opacity:0.1;isolation:isolate"></path><path d="M328.34,198.06s.84,11.6,1.64,47l29.06.16c-.37-10.23.75-19.87,4.79-37.88a8.84,8.84,0,0,0-7.77-10.76c-.8-.08-1.61-.14-2.41-.19a90.88,90.88,0,0,0-13.2-.07C334.77,196.79,328.34,198.06,328.34,198.06Z" style="fill:#407BFF"></path><path d="M322.31,206c-1.51,6.77-3.35,9.58-3.35,9.58l10.73,6.3s7.6-18.56,6.26-22.28c-.82-2.27-3.27-2.36-5.09-1.74,0,0-.05,0-.07,0C327.53,196.55,323.63,200.15,322.31,206Z" style="fill:#407BFF"></path><path d="M336,168.85A16.8,16.8,0,0,0,338.27,181c1.44,2.26,2.62,4.68,4.16,6.74a6,6,0,0,0,8.73,1,14,14,0,0,0,1.8-19.41,9.88,9.88,0,0,0-6.41-3.78,15.33,15.33,0,0,0-6.34,1.18C338.69,167.31,337.52,168.33,336,168.85Z" style="fill:#263238"></path><path d="M339.92,179.59a7.09,7.09,0,0,1-1.13,3.79c-1,1.46-2.11.9-2.39-.67-.25-1.37,0-3.81,1.2-4.75S339.92,178,339.92,179.59Z" style="fill:#dd8c6a"></path><path d="M329.16,221.38l4.57-13-2,14.17A7.54,7.54,0,0,1,329.16,221.38Z" style="opacity:0.2;isolation:isolate"></path><path d="M358.06,162.82l-3.38-5.11s.6-5.58,1.73-5.5,5.14.65,5.14.65a29.43,29.43,0,0,0,1.19,5c.58,1.14.28,4.36.28,4.36Z" style="fill:#dd8c6a"></path><path d="M330.17,170.08a2.63,2.63,0,0,0,1.36,3.28,4.33,4.33,0,0,0,5.13,3.92c-1.13-.43-1.31-2-.79-3.13.95-2,4.22-4.28,1.48-6.28C335.27,166.34,331,167.7,330.17,170.08Z" style="fill:#263238"></path></g><path d="M332,176.06a2.23,2.23,0,0,1,2.05.2h0l.08.05a.29.29,0,0,0,.28-.5,2.83,2.83,0,0,0-2.57-.32.32.32,0,0,0-.15.13.29.29,0,0,0,.11.4A.28.28,0,0,0,332,176.06Z" style="fill:#263238"></path><path d="M352.6,214.61c0-.06,1.53-2.75,1.31-4.41a4.39,4.39,0,0,0,1.54-3,4.7,4.7,0,0,0-.95-3.39,5.94,5.94,0,0,0-1-7.46c1.79-2.12,1.51-6.13-.92-7.45a3.87,3.87,0,0,0,.88-5.21c-.39,0-.38-.47-.73-.31a10.63,10.63,0,0,0-3.78,3.43,6.92,6.92,0,0,0-4.81-1,3.28,3.28,0,0,0,2.45,5.43c-.5,2.76,1,5.79,3.81,6.18-1.26,3.07-.34,5.25,2.73,6.48-1.34,1.72-1.92,4.46-.74,6.3a4.93,4.93,0,0,0-1.64,3.52C350.54,215.8,352.6,214.61,352.6,214.61Z" style="fill:#263238"></path><path d="M351.44,213.7a2.87,2.87,0,0,0-2.25,5.22,1.32,1.32,0,0,1,.24-2.08,1.57,1.57,0,0,0-.36,1.66,12.16,12.16,0,0,0,.92,1.25,1.38,1.38,0,0,1,.17,1.45,6.44,6.44,0,0,0,3.5-3.9,3.43,3.43,0,0,0,0-2.52A2,2,0,0,0,351.44,213.7Z" style="fill:#263238"></path><path d="M351.44,212.35l-2.92,1.18a3.81,3.81,0,0,1-1.43.14,5.82,5.82,0,0,1-1.29-4.17,6.94,6.94,0,0,1,2.23-4.21,15.46,15.46,0,0,1,2.92,2.52,15.16,15.16,0,0,0,1.52,1.37,1.67,1.67,0,0,1,.18,2,3.76,3.76,0,0,1-1.53,1.35C351.15,212.34,351.41,212.5,351.44,212.35Z" style="fill:#407BFF"></path><path d="M353.53,213.23l2.53,1.88a3.63,3.63,0,0,0,1.34.5,5.82,5.82,0,0,0,2.31-3.7,6.94,6.94,0,0,0-1.08-4.64,15.68,15.68,0,0,0-3.47,1.69,17.3,17.3,0,0,1-1.81.94,1.68,1.68,0,0,0-.69,1.86,3.83,3.83,0,0,0,1.14,1.7C353.82,213.3,353.52,213.39,353.53,213.23Z" style="fill:#407BFF"></path><path d="M351.44,212.35l-2.92,1.18a3.81,3.81,0,0,1-1.43.14,5.82,5.82,0,0,1-1.29-4.17,6.94,6.94,0,0,1,2.23-4.21,15.46,15.46,0,0,1,2.92,2.52,15.16,15.16,0,0,0,1.52,1.37,1.67,1.67,0,0,1,.18,2,3.76,3.76,0,0,1-1.53,1.35C351.15,212.34,351.41,212.5,351.44,212.35Z" style="opacity:0.4;isolation:isolate"></path><path d="M353.53,213.23l2.53,1.88a3.63,3.63,0,0,0,1.34.5,5.82,5.82,0,0,0,2.31-3.7,6.94,6.94,0,0,0-1.08-4.64,15.68,15.68,0,0,0-3.47,1.69,17.3,17.3,0,0,1-1.81.94,1.68,1.68,0,0,0-.69,1.86,3.83,3.83,0,0,0,1.14,1.7C353.82,213.3,353.52,213.39,353.53,213.23Z" style="opacity:0.4;isolation:isolate"></path></g><g id="freepik--character-2--inject-31"><path d="M229.39,328.73a8.26,8.26,0,0,0-2.2-2.05h0s-2.08-3.47-1.28-12.13l-3.41-1.88a3.22,3.22,0,0,0-3.65.45,1.57,1.57,0,0,0-.35.42,23.85,23.85,0,0,0-1.07,2.56,79.88,79.88,0,0,0-2.38,9.12l.65.19,1.72-5.67c.56-1.93,1.51.75,1.4,2.95s.23,4.68,4.47,5.87C228.22,329.93,230.35,330.27,229.39,328.73Z" style="fill:#2e353a"></path><polygon points="225.58 315.44 221.12 314.01 220.84 307.5 221.66 299.98 229.13 300.81 227.01 309.57 225.58 315.44" style="fill:#ffc3bd"></polygon><path d="M226.22,311.41s-.2,4,0,8.53a17.86,17.86,0,0,0,1.2,6.74s-3.35-.25-4.18-2.76-.84-10.33-4.19-10.77a8.47,8.47,0,0,1,1.33-1.28C221.13,311.27,226.22,311.41,226.22,311.41Z" style="fill:#ffc3bd"></path><path d="M260.59,93.06l2.89,2.27L267,93.87l-3.2-2.53S261.85,90.19,260.59,93.06Z" style="fill:#ffc3bd"></path><path d="M248.06,93.4a6.41,6.41,0,0,0,1.23-1.26,2.34,2.34,0,0,0-.3-3,13.75,13.75,0,0,0-2.92-2.39c-.87-1.2-.89-2.67-1.89-3.75s-2.73-.72-4,.26c0,0,.43,3.67,1.44,5.17.61.91,1.08,2.16,2.12,2.51C243.78,90.89,247.08,92.87,248.06,93.4Z" style="fill:#ffc3bd"></path><path d="M244.74,91.34l-3.58,3L245,96.48l4.25-4.21S248.33,89.45,244.74,91.34Z" style="fill:#ffc3bd"></path><path d="M261.09,93.47a6.68,6.68,0,0,1-1.26-1.23,2.35,2.35,0,0,1,.23-3.06,13.67,13.67,0,0,1,2.86-2.46c.83-1.22.82-2.69,1.8-3.8s2.71-.78,4,.17c0,0-.34,3.68-1.31,5.2-.59.93-1,2.19-2.06,2.56C265.31,90.85,262.06,92.91,261.09,93.47Z" style="fill:#ffc3bd"></path><path d="M262,137.62l8.09,8.54c2.79-3.41,12.15-18.25,13.53-31.72.45-4.41-1.68-5.32-1.68-5.32L265.83,92.39c-3.74-1.1-3.53,2.36-3.53,2.36s12.55,19.17,12.14,20.26C274.2,115.63,262,137.62,262,137.62Z" style="fill:#407BFF"></path><path d="M262,137.62l8.09,8.54c2.79-3.41,12.15-18.25,13.53-31.72.45-4.41-1.68-5.32-1.68-5.32L265.83,92.39c-3.74-1.1-3.53,2.36-3.53,2.36s12.55,19.17,12.14,20.26C274.2,115.63,262,137.62,262,137.62Z" style="opacity:0.1"></path><path d="M262,137.62l8.09,8.54c2.79-3.41,12.15-18.25,13.53-31.72.45-4.41-1.68-5.32-1.68-5.32L265.83,92.39c-3.74-1.1-3.53,2.36-3.53,2.36s12.55,19.17,12.14,20.26C274.2,115.63,262,137.62,262,137.62Z" style="fill:#fff;opacity:0.1"></path><path d="M243.66,136.52l-.18.82c-.7,3.23-5,7.95-8.16,7.06h0c-2.53-3.61-11.55-18.39-11.94-31.93-.13-4.44,2.07-5.18,2.07-5.18l18-15.46c3.8-.49,3.8,2.76,3.8,2.76s-15,18-14.71,19.12C232.71,114.35,243.66,136.52,243.66,136.52Z" style="fill:#407BFF"></path><g style="opacity:0.2"><path d="M243.66,136.52l-.18.82c-.7,3.23-5,7.95-8.16,7.06h0c-2.53-3.61-11.55-18.39-11.94-31.93-.13-4.44,2.07-5.18,2.07-5.18l18-15.46c3.8-.49,3.8,2.76,3.8,2.76s-15,18-14.71,19.12C232.71,114.35,243.66,136.52,243.66,136.52Z" style="fill:#fff"></path></g><path d="M232.64,140.13c1.89,3.25,3.92,7.27,5.87,10.85a2.45,2.45,0,0,0,4,.42c3.39-3.88,5.13-9.7,3.61-14.42-2-.88-4.21-1.76-6.17-2.64C237.12,135.73,234.27,137.44,232.64,140.13Z" style="fill:#407BFF"></path><path d="M232.64,140.13c1.89,3.25,3.92,7.27,5.87,10.85a2.45,2.45,0,0,0,4,.42c3.39-3.88,5.13-9.7,3.61-14.42-2-.88-4.21-1.76-6.17-2.64C237.12,135.73,234.27,137.44,232.64,140.13Z" style="fill:#fff;opacity:0.2"></path><path d="M272.14,156.28l-1,3.32c-.65,3.44-1.53,6.7-1.91,9.77a123.35,123.35,0,0,0,1,18.73s.8,14.32.77,15.29l-38-.16c1.33-17.4,10.08-32.47,10.08-34.89,0-3.07-.2-1.56-2.82-10a0,0,0,0,0,0,0s0-.05,0-.1-.05-.18-.09-.27a3,3,0,0,0-.11-.37c0-.08,0-.16-.07-.25l-.29-1c-.67-2.28-1.81-6.38-2.92-11.34-.72-3.26,1-7.42,4.25-8.15l.55-.09c1.7-.22,3.58-.43,5.5-.52a90.91,90.91,0,0,1,12.89,0,58.31,58.31,0,0,1,6.27.77c.66.1,1.57,1,2.52,2.2A20.16,20.16,0,0,1,272.14,156.28Z" style="fill:#407BFF"></path><g style="opacity:0.2"><path d="M272.14,156.28l-1,3.32c-.65,3.44-1.53,6.7-1.91,9.77a123.35,123.35,0,0,0,1,18.73s.8,14.32.77,15.29l-38-.16c1.33-17.4,10.08-32.47,10.08-34.89,0-3.07-.2-1.56-2.82-10a0,0,0,0,0,0,0s0-.05,0-.1-.05-.18-.09-.27a3,3,0,0,0-.11-.37c0-.08,0-.16-.07-.25l-.29-1c-.67-2.28-1.81-6.38-2.92-11.34-.72-3.26,1-7.42,4.25-8.15l.55-.09c1.7-.22,3.58-.43,5.5-.52a90.91,90.91,0,0,1,12.89,0,58.31,58.31,0,0,1,6.27.77c.66.1,1.57,1,2.52,2.2A20.16,20.16,0,0,1,272.14,156.28Z" style="fill:#fff"></path></g><path d="M254.7,132.51c.18,0-10.35-.38-11.57,1.2a3,3,0,0,0-.69,1.89,1.68,1.68,0,0,0,1.1,1.57c-1.37.82-3.23,1.67-3,3.25a2.83,2.83,0,0,0,2.39,2.18,8.31,8.31,0,0,0,3.42-.36,2.44,2.44,0,0,0,.93,2.72,5.26,5.26,0,0,0,2.71.69,28,28,0,0,0,5.25-.23c.54-1.44-.15-3.18-.91-4.52C252.54,137.73,256.85,135.44,254.7,132.51Z" style="fill:#407BFF"></path><path d="M254.7,132.51c.18,0-10.35-.38-11.57,1.2a3,3,0,0,0-.69,1.89,1.68,1.68,0,0,0,1.1,1.57c-1.37.82-3.23,1.67-3,3.25a2.83,2.83,0,0,0,2.39,2.18,8.31,8.31,0,0,0,3.42-.36,2.44,2.44,0,0,0,.93,2.72,5.26,5.26,0,0,0,2.71.69,28,28,0,0,0,5.25-.23c.54-1.44,2-3.06,1.2-4.41C254.65,137.84,256.85,135.44,254.7,132.51Z" style="fill:#fff"></path><path d="M255.88,132.56c-.18,0,9.88-.43,11.1,1.15a2.94,2.94,0,0,1,.7,1.89,1.71,1.71,0,0,1-1.1,1.57c1.37.82,3.22,1.67,3,3.25a2.84,2.84,0,0,1-2.4,2.18,8.35,8.35,0,0,1-3.42-.36,2.42,2.42,0,0,1-.92,2.72,5.27,5.27,0,0,1-2.72.69,27.8,27.8,0,0,1-5.24-.23c-.54-1.44.15-3.18.9-4.52C257.57,137.73,253.73,135.49,255.88,132.56Z" style="fill:#fff"></path><polygon points="254.05 144.51 258.1 149.87 260.6 144.51 254.05 144.51" style="fill:#fff"></polygon><path d="M242,117.05a12.45,12.45,0,0,0-2.72,2.39,4.24,4.24,0,0,0-.94,3.4,2.6,2.6,0,0,0,2.58,2.1c-.88,1.18-2.48,2.79-2.78,4.23a3.49,3.49,0,0,0,1.47,3.83c4.12-.42,8.27-.66,12.38-1.08.06-2.12.33-4,.38-6.1C249.71,122.3,245.69,119.55,242,117.05Z" style="fill:#263238"></path><path d="M264.56,117.05a12.69,12.69,0,0,1,2.72,2.39,4.27,4.27,0,0,1,.94,3.4,2.6,2.6,0,0,1-2.58,2.1c.88,1.18,2.48,2.79,2.78,4.23a3.48,3.48,0,0,1-1.48,3.83c-4.11-.42-8.26-.66-12.37-1.08-.06-2.12-.33-4-.39-6.1C256.88,122.3,260.9,119.55,264.56,117.05Z" style="fill:#263238"></path><path d="M251,122.12c.51,4,.83,11.23-2.09,13.68,2.18,3,5,4.74,8.16,8.06,3.44-5.22,4.07-7.28,4.07-7.28-4.32-1.33-4-4.57-3-7.58Z" style="fill:#ffc3bd"></path><path d="M251.78,122.87a16.24,16.24,0,0,0,1.2,6.85c.62,1.5,2.54,2.27,4.52,2.55a11,11,0,0,1,.59-3.27Z" style="opacity:0.2"></path><path d="M245.06,116.8c1.5,6.43,1.95,9.17,5.81,12,5.76,4.18,13.32,1,13.8-5.77.42-6-2.1-15.54-8.85-17.06a9,9,0,0,0-10.76,10.87Z" style="fill:#ffc3bd"></path><path d="M250.06,104.24c4.47-3.59,9-1.72,11.37-.28A9.88,9.88,0,0,1,266,110.6c.19,1.07-.26,3.49-2.33,4a10.62,10.62,0,0,0-2.13-3.41c-1.44-1.31-4.22-3-5.38-2.73-1.24,2.39-3.22,6.83-6.71,7.66-2.63.62.06,14-5.29,8.44-6.4-8.76-3.06-13-1.16-16.49S250.06,104.24,250.06,104.24Z" style="fill:#263238"></path><path d="M260.52,123.32a.16.16,0,0,0,.07-.17.16.16,0,0,0-.18-.12h0a4.22,4.22,0,0,1-3.71-.94.17.17,0,0,0-.23,0,.16.16,0,0,0,0,.22,4.45,4.45,0,0,0,4,1Z" style="fill:#263238"></path><path d="M261.27,120.39a2.33,2.33,0,0,0,1.76-.81,15.14,15.14,0,0,1-2.83-2.88Z" style="fill:#ed893e"></path><path d="M244,122.21a4.81,4.81,0,0,0,2.35,2.86c1.5.76,2.59-.49,2.46-2.08-.12-1.43-1-3.56-2.68-3.68a2.16,2.16,0,0,0-2.26,2.07A2.36,2.36,0,0,0,244,122.21Z" style="fill:#ffc3bd"></path><path d="M240.34,156.42c.1.37.2.69.28,1-.1-.3-.19-.62-.29-1Z" style="fill:#407BFF"></path><polygon points="273.44 318.46 268.41 318.25 266.52 310.23 265.16 302.79 272.56 301.45 273.03 310.45 273.44 318.46" style="fill:#ffc3bd"></polygon><path d="M281,328.08a8.28,8.28,0,0,0-2.71-1.34h0s-3-2.73-4.68-11.26l-3.8-.83a3.23,3.23,0,0,0-3.37,1.47,1.64,1.64,0,0,0-.22.51,23,23,0,0,0-.29,2.76,78,78,0,0,0,.32,9.42h.68l0-5.93c0-2,1.66.29,2.18,2.43s1.55,4.41,6,4.34C280.2,329.56,282.33,329.28,281,328.08Z" style="fill:#2e353a"></path><path d="M272.8,312.44s.95,3.89,2.4,8.19a18,18,0,0,0,3.07,6.11s-3.27.71-4.79-1.45-3.75-9.66-7.08-9.13a8.11,8.11,0,0,1,.9-1.6C267.88,313.76,272.8,312.44,272.8,312.44Z" style="fill:#ffc3bd"></path><path d="M274.05,253.82,272.93,308l-6.66.69A227.83,227.83,0,0,1,260,269.91c-.27-4.48.8-9.69.31-13.24-.44-3.1-1.67-5-3.4-12.06-2.09-8.49-4.27-19.88-3.71-28.75,0,0-9.1-9.5-6.78-22.45l8.11-2.15,11.92-3.18,3.75,0,.08,1.58Z" style="fill:#263238"></path><g style="opacity:0.1"><path d="M274.05,253.82,272.93,308l-6.66.69A227.83,227.83,0,0,1,260,269.91c-.27-4.48.8-9.69.31-13.24-.44-3.1-1.67-5-3.4-12.06-2.09-8.49-4.27-19.88-3.71-28.75,0,0-9.1-9.5-6.78-22.45l8.11-2.15,11.92-3.18,3.35,0,.08,1.58Z"></path></g><path d="M259.47,190.53l-15.31,65.06-16.54,51.6L221,306A227.36,227.36,0,0,1,226.11,267c1-4.38,3.53-9.07,4.07-12.61.47-3.1-.16-5.31.19-12.53.42-8.74,1.58-20.28,4.65-28.61,0,0-6-11.71-.09-23.45Z" style="fill:#263238"></path><polygon points="270.39 191.53 259.02 192.42 234.93 189.81 235.77 187.95 266.46 188.08 270.2 188.1 270.24 188.1 270.29 189.68 270.39 191.53" style="fill:#263238"></polygon><path d="M258.8,103.59H250a4.8,4.8,0,0,0,1.88-2.41c.5-1.47.88-1.61,1.11-3.28a28.25,28.25,0,0,0,.29-3.9,19.45,19.45,0,0,0-.71-5.23h3.63a20.36,20.36,0,0,0-.72,5.22,20.74,20.74,0,0,0,1.41,7.19A4.86,4.86,0,0,0,258.8,103.59Z" style="fill:#407BFF"></path><path d="M256.23,88.77c-.15.86-.32,1.64-.5,2.38A22.71,22.71,0,0,1,253,97.9a28.25,28.25,0,0,0,.29-3.9,19.45,19.45,0,0,0-.71-5.23Z" style="opacity:0.2"></path><path d="M248.25,78.58,247.1,80l-.58-.68a4.57,4.57,0,0,0-3-1.33l-.26,0a1.87,1.87,0,0,0-1.23.74,2.9,2.9,0,0,0-.5,1,2.82,2.82,0,0,0-.07.31,4.73,4.73,0,0,0,.25,2.36,3.33,3.33,0,0,0,2.85,2.47h.82v1.94h-.82c-1.83,0-3.53-1.42-4.35-3.62,0-.15-.1-.3-.14-.44a6,6,0,0,1,.76-5.38,3.39,3.39,0,0,1,2.64-1.4,5,5,0,0,1,2.07.43,6.45,6.45,0,0,1,2.1,1.46Z" style="fill:#407BFF"></path><path d="M245.56,76.44a.73.73,0,0,1-.17.27,2.5,2.5,0,0,1-.84.5,6.15,6.15,0,0,0-1.27.77,1.87,1.87,0,0,0-1.23.74,3,3,0,0,0-.57,1.36,7.18,7.18,0,0,0-.67,1.46,2.4,2.4,0,0,1-.72,1.25,6.28,6.28,0,0,1,.25-4.56,4.33,4.33,0,0,1,.51-.82,3.39,3.39,0,0,1,2.64-1.4h.28A5.11,5.11,0,0,1,245.56,76.44Z" style="fill:#fff;opacity:0.2"></path><path d="M243.77,76a.13.13,0,0,1,0,.06,2.13,2.13,0,0,1-1,1.34,5.1,5.1,0,0,1-2,.79,2.43,2.43,0,0,1-.38,0,4.33,4.33,0,0,1,.51-.82,3.39,3.39,0,0,1,2.64-1.4Z" style="fill:#fff;opacity:0.30000000000000004"></path><path d="M244.74,84.91a1,1,0,0,1-1.24.32,3.55,3.55,0,0,1-2.19-2.4,4.75,4.75,0,0,1,.24-3.06,2.82,2.82,0,0,0-.07.31,4.73,4.73,0,0,0,.25,2.36,3.33,3.33,0,0,0,2.85,2.47Z" style="opacity:0.2"></path><path d="M260.79,78.58,261.94,80l.58-.68a4.57,4.57,0,0,1,3-1.33l.26,0a1.87,1.87,0,0,1,1.23.74,2.9,2.9,0,0,1,.5,1,1.55,1.55,0,0,1,.07.31,4.73,4.73,0,0,1-.25,2.36,3.33,3.33,0,0,1-2.85,2.47h-.82v1.94h.82c1.83,0,3.53-1.42,4.35-3.62l.15-.44a6,6,0,0,0-.77-5.38,3.39,3.39,0,0,0-2.64-1.4,5,5,0,0,0-2.07.43,6.45,6.45,0,0,0-2.1,1.46Z" style="fill:#407BFF"></path><path d="M263.48,76.44a.73.73,0,0,0,.17.27,2.5,2.5,0,0,0,.84.5,6.15,6.15,0,0,1,1.27.77,1.87,1.87,0,0,1,1.23.74,3,3,0,0,1,.57,1.36,7.18,7.18,0,0,1,.67,1.46,2.41,2.41,0,0,0,.73,1.25,6.33,6.33,0,0,0-.26-4.56,4.33,4.33,0,0,0-.51-.82,3.39,3.39,0,0,0-2.64-1.4h-.28A5.11,5.11,0,0,0,263.48,76.44Z" style="fill:#fff;opacity:0.2"></path><path d="M265.27,76s0,0,0,.06a2.13,2.13,0,0,0,1,1.34,5.1,5.1,0,0,0,2,.79,2.43,2.43,0,0,0,.38,0,4.33,4.33,0,0,0-.51-.82,3.39,3.39,0,0,0-2.64-1.4Z" style="fill:#fff;opacity:0.30000000000000004"></path><path d="M264.3,84.91a1,1,0,0,0,1.24.32,3.55,3.55,0,0,0,2.19-2.4,4.69,4.69,0,0,0-.24-3.06,1.55,1.55,0,0,1,.07.31,4.73,4.73,0,0,1-.25,2.36,3.33,3.33,0,0,1-2.85,2.47Z" style="opacity:0.2"></path><path d="M264.68,84.6a5.66,5.66,0,0,1-.12.81,6,6,0,0,1-2.37,3.81c-3.08,2.07-8,2.66-12,1.49l-.35-.11a10.22,10.22,0,0,1-2.81-1.38,5.54,5.54,0,0,1-1.35-1.42,6.74,6.74,0,0,1-1.14-3.2,7.16,7.16,0,0,1,.41-3.16v0l.13-.33a7.36,7.36,0,0,1,.81-1.45c.4-.56.87-1,1.24-1.61a2.8,2.8,0,0,0,.57-1.8l6.9.62,6.9-.62a2.8,2.8,0,0,0,.57,1.8c.37.56.84,1,1.24,1.61a7.5,7.5,0,0,1,1,1.86h0A7.35,7.35,0,0,1,264.68,84.6Z" style="fill:#407BFF"></path><path d="M256,82c-4,1.7-8.35.48-10.16-.21a6.47,6.47,0,0,1-.84-.38l.06-.16a7.5,7.5,0,0,1,.88-1.62c.4-.56.87-1,1.24-1.61a2.8,2.8,0,0,0,.57-1.8l6.9.62,5.3-.36C260.06,77.19,260.18,80.21,256,82Z" style="fill:#fff;opacity:0.1"></path><path d="M264.68,84.6a6.25,6.25,0,0,1-2.49,4.62c-4.06,2.73-11.15,2.88-15.14,0a6.47,6.47,0,0,1-2.49-4.62,5.4,5.4,0,0,1,0-.8c2.67,3.12,7.84,4.13,12,2a9.34,9.34,0,0,0,4.68-5.38,7.52,7.52,0,0,0,.18-4.22l.18,0a2.8,2.8,0,0,0,.57,1.8c.37.56.84,1,1.24,1.61A7.31,7.31,0,0,1,264.68,84.6Z" style="opacity:0.1"></path><path d="M264.56,85.41a6,6,0,0,1-2.37,3.81c-3.17,2.13-8.28,2.69-12.33,1.38-.51-.2-1-.43-1.51-.68a8.25,8.25,0,0,1-2.65-2.12,6.74,6.74,0,0,1-1.14-3.2,7.39,7.39,0,0,1,.41-3.18,14.81,14.81,0,0,0,3.78,1.41,17,17,0,0,0,3,.55c2.75.25,8.14.33,12.51-1.88h0A9.51,9.51,0,0,1,264.56,85.41Z" style="opacity:0.1"></path><path d="M264.68,84.6a6.25,6.25,0,0,1-2.49,4.62c-4.06,2.73-11.15,2.88-15.14,0a6.47,6.47,0,0,1-2.49-4.62c0-.27,1.31,2.68,1.3,2.38,2.95,3.57,8.6,3.76,13,1.76,5.3-2.42,4.39-8,3.26-10.69.37.55.84,1,1.23,1.59A7.31,7.31,0,0,1,264.68,84.6Z" style="opacity:0.2"></path><path d="M261.75,77.43c-8.84,2.51-14.49-1-14.54-1.46l7.41.88,6.9-.62A2.32,2.32,0,0,0,261.75,77.43Z" style="opacity:0.30000000000000004"></path><path d="M262.29,75.23a2.24,2.24,0,0,1-.29,1.19c-3.69,1.34-11.23,1.26-14.76,0a2.24,2.24,0,0,1-.29-1.19c1.2.8,5.09,1,7.67,1.06S261.09,76,262.29,75.23Z" style="fill:#407BFF"></path><path d="M260,77h-.07A32.37,32.37,0,0,1,249,76.9a12.57,12.57,0,0,1-1.78-.48,2.16,2.16,0,0,1-.3-1.19,11.72,11.72,0,0,0,4.51.91c1.1.09,2.22.13,3.16.15a47.69,47.69,0,0,0,5.09-.35h.06C259.86,76.27,259.93,77,260,77Z" style="fill:#407BFF;opacity:0.1"></path><path d="M262.29,75.23c.06.59-3.37,1.08-7.67,1.08s-7.73-.49-7.67-1.08,3.49-1,7.67-1S262.23,74.65,262.29,75.23Z" style="fill:#407BFF"></path><path d="M261.53,75.12c0,.44-3,.79-6.81.79s-6.86-.35-6.83-.79,3.08-.78,6.82-.78S261.51,74.69,261.53,75.12Z" style="opacity:0.2"></path><path d="M250.8,79.53a1.17,1.17,0,0,1-1.12.75,1.27,1.27,0,0,1-1-.36c-.11-.11-.45-.66-.12-1,0,0,0,0,0,0a1.77,1.77,0,0,1,1.74,0h0C250.81,79.2,250.84,79.36,250.8,79.53Z" style="fill:#fff;opacity:0.30000000000000004"></path><path d="M249.77,78.75c.56.08.43.81-.16.82a.92.92,0,0,1-.22,0c-.58-.09-.43-.82.16-.83A.82.82,0,0,1,249.77,78.75Z" style="fill:#fff;opacity:0.30000000000000004"></path><path d="M251.38,76.21a3.36,3.36,0,0,1-1.31.56,5.08,5.08,0,0,1-1,.13,12.57,12.57,0,0,1-1.78-.48,2.31,2.31,0,0,1-.29-.86,1.65,1.65,0,0,0,.56.09h.28s0,.07.14.1h0l.26.06h0l.88.15.74.09.64.07Z" style="fill:#fff;opacity:0.2"></path><path d="M255.68,76.31a3.43,3.43,0,0,1-2.34,1,5.13,5.13,0,0,1-1.34,0l-.39-.06a6.21,6.21,0,0,1-1.54-.49,1.94,1.94,0,0,1-1-.79c.65.09,1.43.17,2.3.23s2.09.1,3.24.1h1.06Z" style="fill:#fff;opacity:0.2"></path><path d="M250.46,76.14a.3.3,0,0,1-.3.23s-.42,0-.34-.3Z" style="fill:#fff;opacity:0.30000000000000004"></path><path d="M264.75,104.53H244.29a13,13,0,0,1,6.34-1.65h7.78a13,13,0,0,1,6.34,1.65Z" style="fill:#407BFF"></path><path d="M264.75,104.53H244.29a13,13,0,0,1,6.34-1.65h7.78a13,13,0,0,1,6.34,1.65Z" style="fill:#fff;opacity:0.30000000000000004"></path><path d="M269.88,185.43c.91,13.66,2.08,30.91,3,44.58a126.61,126.61,0,0,1-42,.94c-.26-5.34,1.59-11.21.25-16.39-2.35-9.13-.13-19.21,5-27.15,8-.63,12.06-1.14,20.06-1.77C259.5,185.38,269.88,185.43,269.88,185.43Z" style="fill:#407BFF"></path><path d="M269.88,185.43c.91,13.66,2.08,30.91,3,44.58a126.61,126.61,0,0,1-42,.94c-.26-5.34,1.59-11.21.25-16.39-2.35-9.13-.13-19.21,5-27.15,8-.63,12.06-1.14,20.06-1.77C259.5,185.38,269.88,185.43,269.88,185.43Z" style="fill:#fff;opacity:0.2"></path><path d="M252.93,115.68a.29.29,0,0,1-.16,0,.27.27,0,0,1-.13-.35,3.77,3.77,0,0,1,2.57-2.06.23.23,0,0,1,.31.19.28.28,0,0,1-.2.32,3.18,3.18,0,0,0-2.2,1.77A.29.29,0,0,1,252.93,115.68Z" style="fill:#263238"></path><path d="M262.45,111.9a.25.25,0,0,1-.12,0,2.83,2.83,0,0,0-2.45.34.27.27,0,0,1-.37-.07.26.26,0,0,1,.07-.36,3.34,3.34,0,0,1,2.91-.41.27.27,0,0,1,.17.33A.29.29,0,0,1,262.45,111.9Z" style="fill:#263238"></path><path d="M257,116.61c.16.52.09,1-.26,1.16s-.77-.17-1-.69-.09-1,.26-1.16S256.83,116.1,257,116.61Z" style="fill:#263238"></path><path d="M255.92,116l.94-.86S256.67,116.3,255.92,116Z" style="fill:#263238"></path><path d="M262.83,115.2c.15.52.08,1-.26,1.16s-.78-.18-1-.69-.07-1,.27-1.16S262.62,114.65,262.83,115.2Z" style="fill:#263238"></path><path d="M261.72,114.58l.95-.86S262.47,114.87,261.72,114.58Z" style="fill:#263238"></path><path d="M249.65,231.67l2.43-10.33a.44.44,0,0,1,.86,0l1.41,10.15Z" style="opacity:0.1"></path></g><g id="freepik--character-1--inject-31"><polygon points="182 350.36 178.85 363.68 184.86 364.06 188.3 350.76 182 350.36" style="fill:#ffb573"></polygon><polygon points="89.63 367.25 102.55 352.21 109.3 356.92 93.67 371.81 89.63 367.25" style="fill:#ffb573"></polygon><path d="M195.9,372c-5.56-.54-7.68-.83-10.82-1.25-2.68-.36-3.29-.07-5.42-.32-1.79-.22-1.94-2-1.62-4.06.15-1,.61-3.52.79-5.18l6.79.23c1.41,2.42,7.89,6.47,11.06,7.25S198.12,372.2,195.9,372Z" style="fill:#263238"></path><path d="M94.82,384.89c-3.21-4.65-4.38-6.47-6.11-9.17-1.48-2.31-2.09-2.58-3.29-4.39-1-1.53.24-2.84,2-3.94.86-.56,3-1.85,4.35-2.81L96,370c-.87,2.7.35,10.37,1.83,13.33C99.26,386.07,96.1,386.74,94.82,384.89Z" style="fill:#263238"></path><path d="M152.38,252l16.6,3.63S203.3,292,205.71,305.13c1.22,6.62-17.92,50.32-17.92,50.32l-8.18-.22s5-37.41,10.95-46.15l-41.22-28.74S141.9,258.49,152.38,252Z" style="fill:#407BFF"></path><path d="M152.38,252l16.6,3.63S203.3,292,205.71,305.13c1.22,6.62-17.92,50.32-17.92,50.32l-8.18-.22s5-37.41,10.95-46.15l-41.22-28.74S141.9,258.49,152.38,252Z" style="fill:#fff;opacity:0.5"></path><polygon points="175.73 298.45 150.07 270.7 149.23 279.56 175.73 298.45" style="opacity:0.1"></polygon><path d="M161,253.25s-18.41-6.26-19.13-6.72-10.75,17.87-12.38,30.09-.45,41.2-.45,41.2S119,324,112.18,333.52L96.64,357.64l5.87,6.42,36.4-32.26a23.85,23.85,0,0,0,8.46-13.75Z" style="fill:#407BFF"></path><path d="M161,253.25s-18.41-6.26-19.13-6.72-10.75,17.87-12.38,30.09-.45,41.2-.45,41.2S119,324,112.18,333.52L96.64,357.64l5.87,6.42,36.4-32.26a23.85,23.85,0,0,0,8.46-13.75Z" style="fill:#fff;opacity:0.5"></path><path d="M164.27,214c.94.47,1.76.87,2.65,1.26s1.73.75,2.64,1.13c1.76.7,3.56,1.35,5.43,1.95a44.43,44.43,0,0,0,11.87,2.31,19.79,19.79,0,0,0,3.44-.18,12.72,12.72,0,0,0,3.72-1.08,14.11,14.11,0,0,0,5.55-4.73,20,20,0,0,0,2.76-5.83,25.24,25.24,0,0,0,.69-3,10.74,10.74,0,0,0,.18-1.51c0-.52.07-1,.1-1.58l-4.42-.73-.49,1.1-.53,1.13c-.37.76-.76,1.48-1.19,2.2a16.92,16.92,0,0,1-2.75,3.6,7.43,7.43,0,0,1-3,1.87,7.07,7.07,0,0,1-1.57.27,15.25,15.25,0,0,1-2-.06,29.23,29.23,0,0,1-4.64-.89c-1.6-.41-3.21-.93-4.83-1.5s-3.23-1.21-4.85-1.85l-2.41-1c-.78-.34-1.63-.7-2.3-1Z" style="fill:#ffb573"></path><path d="M154.07,211.12c-1.58-6.75,4-10.59,13.1-8a84.34,84.34,0,0,1,14.2,5.18L176,223.53C167.13,221.55,155.69,218.06,154.07,211.12Z" style="fill:#407BFF"></path><path d="M154.07,211.12c-1.58-6.75,4-10.59,13.1-8a84.34,84.34,0,0,1,14.2,5.18L176,223.53C167.13,221.55,155.69,218.06,154.07,211.12Z" style="opacity:0.1"></path><path d="M197.75,200.3l.58-3.29,5.76,3.28s-.75,5.66-3.53,5.24l-1.23-1.17A5.37,5.37,0,0,1,197.75,200.3Z" style="fill:#ffb573"></path><polygon points="200.37 193.94 206.09 195.21 204.07 200.31 198.32 197.03 200.37 193.94" style="fill:#ffb573"></polygon><path d="M155.3,201.17l-7.85-.76-9.68,1.29a6.74,6.74,0,0,0-5.82,5.79c-.82,5.93,0,41.27,1.74,52l5.78.6c9.51.71,21.68-.86,30.57-4.33,0,0,.49-38.85.42-46.37a6.74,6.74,0,0,0-5-6.46Z" style="fill:#407BFF"></path><path d="M142,201.72a5.68,5.68,0,0,0,1.18,3.95,16.76,16.76,0,0,0,3,3c1.37,1.15,3,2.37,4.76,2.06s2.52-1.16,3.1-3.13c1.5,2.19,1.61,3.31,3.16,3.39a3.44,3.44,0,0,0,2.5-1.47,5.62,5.62,0,0,0,1.85-3.84c.24-2.87-2.19-5.42-4.94-6.31a34.12,34.12,0,0,0-8.55-1.3C145.53,197.85,142.38,198.77,142,201.72Z" style="fill:#407BFF"></path><path d="M142,201.72a5.68,5.68,0,0,0,1.18,3.95,16.76,16.76,0,0,0,3,3c1.37,1.15,3,2.37,4.76,2.06s2.52-1.16,3.1-3.13c1.5,2.19,1.61,3.31,3.16,3.39a3.44,3.44,0,0,0,2.5-1.47,5.62,5.62,0,0,0,1.85-3.84c.24-2.87-2.19-5.42-4.94-6.31a34.12,34.12,0,0,0-8.55-1.3C145.53,197.85,142.38,198.77,142,201.72Z" style="fill:#fff;opacity:0.6000000000000001"></path><path d="M148.21,187.71l3.71,3.91,5,5.33a6.15,6.15,0,0,0-.89,2,3.38,3.38,0,0,0,1.51,4.18c.75.31,1.29,4.12-3.54,3.93a10,10,0,0,1-7.41-3c-.94-1.14-1.2-1.77-.35-3.1C148.72,197.21,148.69,191.91,148.21,187.71Z" style="fill:#ffb573"></path><path d="M155.74,195.63l-3.2-3.87c0,.12-.07.25-.1.39a11.23,11.23,0,0,0-.23,1.73c-.09,2,1.88,4.45,3.75,5.46l.12-.4a7.75,7.75,0,0,1,.81-1.92l.09-.09Z" style="opacity:0.2;isolation:isolate"></path><path d="M159,186.45c2.85-5.71,2.19-8.92,5-12,1.5-.69,4.17,2.06,2.47,6.8S159,186.45,159,186.45Z" style="fill:#263238"></path><path d="M148.21,180.2c-.26,6.59-.69,10.44,2.29,14,6.48,6.17,12.9,3.09,15.1-3.33,2-5.78,2-15.59-4.17-18.7a9.14,9.14,0,0,0-13.22,8Z" style="fill:#ffb573"></path><path d="M147.5,186.06l2.82.55,1.16-4.25,2.91-1.7,1-3.72a2.73,2.73,0,0,0-2.25-3.38c-1.84-.27-4.06-.59-5.27-.74-.81-.09-3.61,2.14-4,3.06a7.58,7.58,0,0,0,1.34,7.86A17.25,17.25,0,0,0,147.5,186.06Z" style="fill:#263238"></path><path d="M145,185a6,6,0,0,0,2.05,3.75c1.46,1.22,3.11-.25,3.23-2.12.09-1.68-.85-4.07-2.57-4.56S144.8,183.16,145,185Z" style="fill:#ffb573"></path><path d="M159.13,183.66c-.07.55.15,1,.51,1.1s.66-.32.77-.86-.14-1-.5-1.1S159.21,183.12,159.13,183.66Z" style="fill:#263238"></path><path d="M161.58,192.07c-.07.54.15,1,.5,1.09s.67-.32.78-.86-.14-1-.5-1.1S161.66,191.52,161.58,192.07Z" style="fill:#263238"></path><path d="M164.55,184.45c-.08.55.15,1,.5,1.1s.7-.33.78-.86-.15-1-.5-1.1S164.63,183.91,164.55,184.45Z" style="fill:#263238"></path><path d="M162.7,184.77a17.83,17.83,0,0,0,2.49,3.92,2.64,2.64,0,0,1-2.2.49Z" style="fill:#ff5652"></path><path d="M157.4,182.15a.29.29,0,0,1-.14-.08.33.33,0,0,1,0-.46,3.11,3.11,0,0,1,2.8-.81.33.33,0,0,1,.23.39h0a.34.34,0,0,1-.4.23,2.45,2.45,0,0,0-2.19.65A.31.31,0,0,1,157.4,182.15Z" style="fill:#263238"></path><path d="M164.7,182.13a.32.32,0,0,1,0-.17.32.32,0,0,1,.39-.24,3.09,3.09,0,0,1,2.25,1.84.32.32,0,0,1-.19.41.31.31,0,0,1-.41-.19,2.48,2.48,0,0,0-1.79-1.43A.34.34,0,0,1,164.7,182.13Z" style="fill:#263238"></path><path d="M122.46,200.28c-5.4-1.65-8.71-.66-9.77-4.05s-2.25-22.08-1.42-22.3c-1.54.48-2.88,1-4.41,1.48q-.84,7.71-1.85,15.41c-.49,3.75-1.09,9.83.46,13.28,1.4,3.11,10.63,5.05,17.31,6.33C124.74,208.47,122.46,200.28,122.46,200.28Z" style="fill:#ffb573"></path><path d="M139.47,210.57c4.67-5.15,1-9.75-8.16-11.92a83.69,83.69,0,0,0-14.92-2.37l-2.12,14.46C123,213.31,134.69,215.83,139.47,210.57Z" style="fill:#407BFF"></path><path d="M112.79,178.39l1.62-2.71-7.29-1.62s-3.17,6-.34,7.14l1.79-.41C110.12,180.46,112,179.9,112.79,178.39Z" style="fill:#ffb573"></path><polygon points="113.57 170.76 109.28 170.57 107.13 174.06 114.42 175.68 113.57 170.76" style="fill:#ffb573"></polygon><path d="M178.56,352.73c.23-.09,12.2.73,12.2.73l-1,3.66-12.08-.21Z" style="fill:#407BFF"></path><path d="M96.53,355.91c.23.09,8.42,8.86,8.42,8.86l-3.27,2L93,358.33Z" style="fill:#407BFF"></path></g></svg>